<?xml version="1.0" standalone="no"?>
<!DOCTYPE svg PUBLIC "-//W3C//DTD SVG 20010904//EN"
 "http://www.w3.org/TR/2001/REC-SVG-20010904/DTD/svg10.dtd">
<svg version="1.0" xmlns="http://www.w3.org/2000/svg"
 width="100.000000pt" height="50.000000pt" viewBox="0 0 100.000000 50.000000"
 preserveAspectRatio="xMidYMid meet">

<g transform="translate(0.000000,50.000000) scale(0.100000,-0.100000)"
fill="#000000" stroke="none">
<path d="M170 250 c0 -36 3 -40 25 -40 20 0 45 24 45 44 0 12 -33 36 -51 36
-16 0 -19 -7 -19 -40z m38 21 c19 -11 11 -45 -11 -49 -13 -3 -17 3 -17 27 0
32 6 37 28 22z"/>
<path d="M254 276 c-3 -8 -4 -25 -2 -38 2 -18 9 -23 33 -23 28 0 30 3 30 35 0
31 -3 35 -28 38 -17 2 -29 -2 -33 -12z m45 -10 c14 -17 4 -46 -15 -46 -18 0
-28 24 -20 45 7 19 20 19 35 1z"/>
<path d="M340 270 c-16 -31 4 -62 38 -58 31 3 45 38 15 38 -15 0 -16 -2 -3
-10 12 -8 12 -10 -3 -16 -23 -8 -40 8 -35 32 3 14 11 18 32 16 17 -2 25 1 21
7 -11 18 -54 12 -65 -9z"/>
<path d="M430 270 c-16 -31 4 -62 38 -58 21 2 28 9 30 32 5 45 -47 65 -68 26z
m50 -6 c11 -12 11 -18 -2 -31 -19 -18 -38 -10 -38 16 0 33 20 40 40 15z"/>
<path d="M520 251 c0 -39 2 -41 29 -41 28 0 47 21 33 35 -4 3 -7 14 -7 23 0
11 -10 18 -27 20 -27 3 -28 1 -28 -37z m40 19 c0 -5 -7 -10 -16 -10 -8 0 -12
5 -9 10 3 6 10 10 16 10 5 0 9 -4 9 -10z m5 -40 c-3 -5 -13 -10 -21 -10 -8 0
-14 5 -14 10 0 6 9 10 21 10 11 0 17 -4 14 -10z"/>
<path d="M611 259 c-15 -45 -14 -51 9 -37 17 11 22 10 30 -2 17 -27 20 -3 5
33 -19 45 -30 47 -44 6z m29 -4 c0 -8 -4 -15 -10 -15 -5 0 -7 7 -4 15 4 8 8
15 10 15 2 0 4 -7 4 -15z"/>
<path d="M693 283 c21 -5 21 -13 2 -39 -21 -28 -18 -34 18 -33 23 1 26 3 10 6
-28 5 -29 15 -3 38 28 26 25 35 -12 34 -18 -1 -25 -3 -15 -6z"/>
<path d="M766 266 c-3 -13 -9 -32 -12 -41 -6 -15 -4 -15 14 -4 17 11 23 10 38
-2 16 -13 17 -12 11 4 -4 11 -10 30 -13 43 -8 31 -30 31 -38 0z m21 -18 c-3
-8 -6 -5 -6 6 -1 11 2 17 5 13 3 -3 4 -12 1 -19z"/>
<path d="M841 248 c1 -24 3 -35 6 -25 6 21 12 21 33 2 16 -14 17 -13 16 22 -1
34 -4 38 -28 41 -27 3 -28 2 -27 -40z m42 17 c1 -5 -6 -11 -15 -13 -11 -2 -18
3 -18 13 0 17 30 18 33 0z"/>
</g>
</svg>
