<svg xmlns="http://www.w3.org/2000/svg" xmlns:xlink="http://www.w3.org/1999/xlink" width="80" zoomAndPan="magnify" viewBox="0 0 60 30.000001" height="40" preserveAspectRatio="xMidYMid meet" version="1.0"><defs><g/></defs><g fill="#000000" fill-opacity="1"><g transform="translate(1.315035, 17.384107)"><g><path d="M 5.859375 -3 C 5.859375 -2.394531 5.738281 -1.863281 5.5 -1.40625 C 5.257812 -0.945312 4.921875 -0.597656 4.484375 -0.359375 C 4.046875 -0.117188 3.539062 0 2.96875 0 L 0.578125 0 L 0.578125 -5.921875 L 2.71875 -5.921875 C 3.71875 -5.921875 4.488281 -5.664062 5.03125 -5.15625 C 5.582031 -4.65625 5.859375 -3.9375 5.859375 -3 Z M 4.609375 -3 C 4.609375 -3.632812 4.441406 -4.117188 4.109375 -4.453125 C 3.773438 -4.796875 3.300781 -4.96875 2.6875 -4.96875 L 1.8125 -4.96875 L 1.8125 -0.953125 L 2.859375 -0.953125 C 3.398438 -0.953125 3.828125 -1.132812 4.140625 -1.5 C 4.453125 -1.875 4.609375 -2.375 4.609375 -3 Z M 4.609375 -3 "/></g></g><g transform="translate(7.528516, 17.384107)"><g><path d="M 6.328125 -2.984375 C 6.328125 -2.367188 6.207031 -1.828125 5.96875 -1.359375 C 5.726562 -0.890625 5.378906 -0.53125 4.921875 -0.28125 C 4.460938 -0.0390625 3.929688 0.078125 3.328125 0.078125 C 2.398438 0.078125 1.671875 -0.191406 1.140625 -0.734375 C 0.617188 -1.285156 0.359375 -2.035156 0.359375 -2.984375 C 0.359375 -3.929688 0.617188 -4.671875 1.140625 -5.203125 C 1.671875 -5.742188 2.40625 -6.015625 3.34375 -6.015625 C 4.28125 -6.015625 5.007812 -5.742188 5.53125 -5.203125 C 6.0625 -4.660156 6.328125 -3.921875 6.328125 -2.984375 Z M 5.0625 -2.984375 C 5.0625 -3.628906 4.910156 -4.128906 4.609375 -4.484375 C 4.304688 -4.847656 3.882812 -5.03125 3.34375 -5.03125 C 2.789062 -5.03125 2.363281 -4.847656 2.0625 -4.484375 C 1.757812 -4.128906 1.609375 -3.628906 1.609375 -2.984375 C 1.609375 -2.335938 1.757812 -1.828125 2.0625 -1.453125 C 2.375 -1.078125 2.796875 -0.890625 3.328125 -0.890625 C 3.890625 -0.890625 4.316406 -1.070312 4.609375 -1.4375 C 4.910156 -1.800781 5.0625 -2.316406 5.0625 -2.984375 Z M 5.0625 -2.984375 "/></g></g><g transform="translate(14.220926, 17.384107)"><g><path d="M 3.390625 -0.890625 C 3.710938 -0.890625 4.023438 -0.9375 4.328125 -1.03125 C 4.628906 -1.125 4.863281 -1.242188 5.03125 -1.390625 L 5.03125 -2.203125 L 3.578125 -2.203125 L 3.578125 -3.125 L 6.15625 -3.125 L 6.15625 -0.953125 C 5.84375 -0.628906 5.4375 -0.375 4.9375 -0.1875 C 4.4375 -0.0078125 3.910156 0.078125 3.359375 0.078125 C 2.390625 0.078125 1.644531 -0.1875 1.125 -0.71875 C 0.613281 -1.25 0.359375 -2.003906 0.359375 -2.984375 C 0.359375 -3.960938 0.617188 -4.710938 1.140625 -5.234375 C 1.660156 -5.753906 2.410156 -6.015625 3.390625 -6.015625 C 4.773438 -6.015625 5.65625 -5.5 6.03125 -4.46875 L 4.890625 -4.125 C 4.765625 -4.425781 4.570312 -4.648438 4.3125 -4.796875 C 4.050781 -4.953125 3.742188 -5.03125 3.390625 -5.03125 C 2.804688 -5.03125 2.363281 -4.851562 2.0625 -4.5 C 1.757812 -4.15625 1.609375 -3.648438 1.609375 -2.984375 C 1.609375 -2.316406 1.765625 -1.800781 2.078125 -1.4375 C 2.390625 -1.070312 2.828125 -0.890625 3.390625 -0.890625 Z M 3.390625 -0.890625 "/></g></g><g transform="translate(20.913337, 17.384107)"><g><path d="M 6.328125 -2.984375 C 6.328125 -2.367188 6.207031 -1.828125 5.96875 -1.359375 C 5.726562 -0.890625 5.378906 -0.53125 4.921875 -0.28125 C 4.460938 -0.0390625 3.929688 0.078125 3.328125 0.078125 C 2.398438 0.078125 1.671875 -0.191406 1.140625 -0.734375 C 0.617188 -1.285156 0.359375 -2.035156 0.359375 -2.984375 C 0.359375 -3.929688 0.617188 -4.671875 1.140625 -5.203125 C 1.671875 -5.742188 2.40625 -6.015625 3.34375 -6.015625 C 4.28125 -6.015625 5.007812 -5.742188 5.53125 -5.203125 C 6.0625 -4.660156 6.328125 -3.921875 6.328125 -2.984375 Z M 5.0625 -2.984375 C 5.0625 -3.628906 4.910156 -4.128906 4.609375 -4.484375 C 4.304688 -4.847656 3.882812 -5.03125 3.34375 -5.03125 C 2.789062 -5.03125 2.363281 -4.847656 2.0625 -4.484375 C 1.757812 -4.128906 1.609375 -3.628906 1.609375 -2.984375 C 1.609375 -2.335938 1.757812 -1.828125 2.0625 -1.453125 C 2.375 -1.078125 2.796875 -0.890625 3.328125 -0.890625 C 3.890625 -0.890625 4.316406 -1.070312 4.609375 -1.4375 C 4.910156 -1.800781 5.0625 -2.316406 5.0625 -2.984375 Z M 5.0625 -2.984375 "/></g></g><g transform="translate(27.605747, 17.384107)"><g><path d="M 3.25 -4.96875 L 3.25 0 L 2.015625 0 L 2.015625 -4.96875 L 0.09375 -4.96875 L 0.09375 -5.921875 L 5.171875 -5.921875 L 5.171875 -4.96875 Z M 3.25 -4.96875 "/></g></g><g transform="translate(32.861369, 17.384107)"><g><path d="M 0.578125 0 L 0.578125 -5.921875 L 5.234375 -5.921875 L 5.234375 -4.96875 L 1.8125 -4.96875 L 1.8125 -3.46875 L 4.984375 -3.46875 L 4.984375 -2.515625 L 1.8125 -2.515625 L 1.8125 -0.953125 L 5.40625 -0.953125 L 5.40625 0 Z M 0.578125 0 "/></g></g><g transform="translate(38.600122, 17.384107)"><g><path d="M 4.640625 0 L 3.265625 -2.25 L 1.8125 -2.25 L 1.8125 0 L 0.578125 0 L 0.578125 -5.921875 L 3.53125 -5.921875 C 4.238281 -5.921875 4.785156 -5.769531 5.171875 -5.46875 C 5.554688 -5.164062 5.75 -4.726562 5.75 -4.15625 C 5.75 -3.738281 5.628906 -3.378906 5.390625 -3.078125 C 5.160156 -2.773438 4.84375 -2.578125 4.4375 -2.484375 L 6.046875 0 Z M 4.5 -4.109375 C 4.5 -4.671875 4.132812 -4.953125 3.40625 -4.953125 L 1.8125 -4.953125 L 1.8125 -3.21875 L 3.4375 -3.21875 C 3.78125 -3.21875 4.039062 -3.296875 4.21875 -3.453125 C 4.40625 -3.609375 4.5 -3.828125 4.5 -4.109375 Z M 4.5 -4.109375 "/></g></g><g transform="translate(44.813603, 17.384107)"><g><path d="M 5.5 0 L 5.5 -3.59375 C 5.5 -3.675781 5.5 -3.753906 5.5 -3.828125 C 5.5 -3.910156 5.507812 -4.257812 5.53125 -4.875 C 5.332031 -4.125 5.1875 -3.597656 5.09375 -3.296875 L 4.03125 0 L 3.140625 0 L 2.078125 -3.296875 L 1.625 -4.875 C 1.65625 -4.226562 1.671875 -3.800781 1.671875 -3.59375 L 1.671875 0 L 0.578125 0 L 0.578125 -5.921875 L 2.234375 -5.921875 L 3.296875 -2.609375 L 3.390625 -2.296875 L 3.59375 -1.5 L 3.859375 -2.453125 L 4.9375 -5.921875 L 6.59375 -5.921875 L 6.59375 0 Z M 5.5 0 "/></g></g><g transform="translate(51.980742, 17.384107)"><g><path d="M 6.328125 -2.984375 C 6.328125 -2.367188 6.207031 -1.828125 5.96875 -1.359375 C 5.726562 -0.890625 5.378906 -0.53125 4.921875 -0.28125 C 4.460938 -0.0390625 3.929688 0.078125 3.328125 0.078125 C 2.398438 0.078125 1.671875 -0.191406 1.140625 -0.734375 C 0.617188 -1.285156 0.359375 -2.035156 0.359375 -2.984375 C 0.359375 -3.929688 0.617188 -4.671875 1.140625 -5.203125 C 1.671875 -5.742188 2.40625 -6.015625 3.34375 -6.015625 C 4.28125 -6.015625 5.007812 -5.742188 5.53125 -5.203125 C 6.0625 -4.660156 6.328125 -3.921875 6.328125 -2.984375 Z M 5.0625 -2.984375 C 5.0625 -3.628906 4.910156 -4.128906 4.609375 -4.484375 C 4.304688 -4.847656 3.882812 -5.03125 3.34375 -5.03125 C 2.789062 -5.03125 2.363281 -4.847656 2.0625 -4.484375 C 1.757812 -4.128906 1.609375 -3.628906 1.609375 -2.984375 C 1.609375 -2.335938 1.757812 -1.828125 2.0625 -1.453125 C 2.375 -1.078125 2.796875 -0.890625 3.328125 -0.890625 C 3.890625 -0.890625 4.316406 -1.070312 4.609375 -1.4375 C 4.910156 -1.800781 5.0625 -2.316406 5.0625 -2.984375 Z M 5.0625 -2.984375 "/></g></g></g></svg>